<mxfile host="app.diagrams.net" modified="2023-05-24T12:34:36.432Z" agent="Mozilla/5.0 (Windows NT 10.0; Win64; x64) AppleWebKit/537.36 (KHTML, like Gecko) Chrome/113.0.0.0 Safari/537.36" version="21.3.2" etag="V2VAZS7pBIShTOvX89mP" type="github">
  <diagram name="PÃ¡gina-1" id="D3L-0YM1VvHH-5JSDcsk">
    <mxGraphModel>
      <root>
        <mxCell id="0" />
        <mxCell id="1" parent="0" />
      </root>
    </mxGraphModel>
  </diagram>
</mxfile>
